<svg data-v-0dd9719b="" version="1.0" xmlns="http://www.w3.org/2000/svg" xmlns:xlink="http://www.w3.org/1999/xlink" width="100%" height="100%" viewBox="0 0 340.000000 250.000000" preserveAspectRatio="xMidYMid meet" color-interpolation-filters="sRGB" style="margin: auto;"> <rect data-v-0dd9719b="" x="0" y="0" width="100%" height="100%" fill="#000000" fill-opacity="0" class="background"></rect> <!----> <g data-v-0dd9719b="" fill="#1A1A1A" class="icon-text-wrapper icon-svg-group iconsvg" transform="translate(26.205001831054688,94.93867494165897)"><g class="iconsvg-imagesvg" transform="translate(0,0)" mask="url(#9d303ad2-bf67-43cc-bfa2-b8048b4f3bc6)"><g><rect fill="#1A1A1A" fill-opacity="0" stroke-width="2" x="0" y="0" width="60" height="60.1226502064211" class="image-rect"></rect> <svg filter="url(#colors8008779204)" x="0" y="0" width="60" height="60.1226502064211" filtersec="colorsf6051892666" class="image-svg-svg primary" style="overflow: visible;"><svg xmlns="http://www.w3.org/2000/svg" viewBox="0 -0.002691119909286499 94.22999572753906 94.42269134521484"><title>资源 166</title><path d="M55.14 75.75a46.1 46.1 0 0 1 10.32-13.64 43.41 43.41 0 0 1 26.73-11c1.55-.11 2.12.37 2 1.93s0 3.27 0 4.82c-22 2.4-34 14.54-36.54 36.56h-5.56c-1.44 0-1.18-1.06-1.21-1.9A49.7 49.7 0 0 0 46.61 74a50.3 50.3 0 0 0-18.13-21.73 3.21 3.21 0 0 0-2.55-.15c-2.3.86-4.52 2-7.16 3.12 15.47 8.55 23.85 21.28 24.57 39h-7.06c-.35-9.87-3.75-18.46-10.73-25.42A36.07 36.07 0 0 0 .22 58.14v-6.78c3.24-.43 6.52-.68 9.72-1.33a50.27 50.27 0 0 0 32.17-21.27 2.49 2.49 0 0 0 .17-3c-1.13-2.18-2.09-4.45-2.89-6.2-3.32 4.08-6.39 8.6-10.23 12.34C21.7 39.16 12.5 42.82 2.07 43.41.37 43.5 0 42.9 0 41.32c0-4.77 0-4.77 4.75-5.32 15.32-1.64 28.89-14.94 31-30.42.24-1.76.42-3.52.65-5.5a50.45 50.45 0 0 1 5.8.13c.46.05 1.08 1.23 1.11 1.92a49.94 49.94 0 0 0 3.74 17.23 50.72 50.72 0 0 0 18.59 22.85 3.21 3.21 0 0 0 2.56.26c2.36-.88 4.64-2 7.25-3.2-.65-.41-1.18-.77-1.72-1.08C59.65 30.11 52 18 51 1.8 50.86.52 51.27.13 52.53.07c5.13-.22 5.13-.25 5.79 4.65a36.16 36.16 0 0 0 32.91 31.45c2.94.27 2.94.27 3 3.19 0 3.91 0 3.91-3.94 4.28-16 1.5-28.63 8.85-38 21.91a2.68 2.68 0 0 0-.29 3.31c1.18 2.14 2 4.36 3.14 6.89zm-7.36-16.53L59 48 47.2 36.11 35.91 47.26c3.55 3.59 7.79 7.85 11.87 11.96z" fill="#000000"></path></svg></svg> <defs><filter id="colors8008779204"><feColorMatrix type="matrix" values="0 0 0 0 0.1015625  0 0 0 0 0.1015625  0 0 0 0 0.1015625  0 0 0 1 0" class="icon-fecolormatrix"></feColorMatrix></filter> <filter id="colorsf6051892666"><feColorMatrix type="matrix" values="0 0 0 0 0.99609375  0 0 0 0 0.99609375  0 0 0 0 0.99609375  0 0 0 1 0" class="icon-fecolormatrix"></feColorMatrix></filter> <filter id="colorsb7485024515"><feColorMatrix type="matrix" values="0 0 0 0 0  0 0 0 0 0  0 0 0 0 0  0 0 0 1 0" class="icon-fecolormatrix"></feColorMatrix></filter></defs></g><rect v-gra="id" width="72" height="72.12265014648438" transform="translate(-6, -6)" style="pointer-events:none;" fill="url(#rlxT9yJup42IubfLV0YXv)"></rect></g> <g transform="translate(67,16.776090621948242)"><g data-gra="path-name" fill-rule="" class="tp-name iconsvg-namesvg" fill="url(#ed73322c-47bc-48cd-8fb1-2d070883ce37)"><g transform="scale(1)"><g><path d="M29.62 0.18L16.05 0.18Q8.8 0.18 4.95-3.17 1.1-6.52 1.1-13.12L1.1-13.12Q1.1-19.68 4.95-23.06 8.8-26.43 16.05-26.39L16.05-26.39 29.25-26.32 29.25-21.63 16.46-21.63Q11.69-21.63 9.38-19.61 7.07-17.59 7.07-13.12L7.07-13.12Q7.07-8.65 9.38-6.62 11.69-4.58 16.46-4.58L16.46-4.58 29.62-4.58 29.62 0.18ZM57.26 0.18L42.41 0.18Q37.5 0.18 34.75-2.25 32-4.69 32-9.42L32-9.42Q32-14.19 34.75-16.62 37.5-19.06 42.41-19.06L42.41-19.06 51.57-19.06Q54.8-19.06 56.5-17.54 58.21-16.02 58.21-13.2L58.21-13.2Q58.21-7.44 51.57-7.44L51.57-7.44 37.72-7.44Q38.49-4.03 42.41-4.03L42.41-4.03 57.26-4.03 57.26 0.18ZM51.32-14.85L42.41-14.85Q38.63-14.85 37.75-11.66L37.75-11.66 51.32-11.66Q52.05-11.66 52.47-12.1 52.89-12.54 52.89-13.31L52.89-13.31Q52.89-14.85 51.32-14.85L51.32-14.85ZM66.82 0L61.51 0 61.51-18.88 77.97-18.88Q81.19-18.88 82.68-17.28 84.16-15.69 84.16-13.09L84.16-13.09 84.16 0 78.85 0 78.85-12.46Q78.85-14.66 76.65-14.66L76.65-14.66 66.82-14.66 66.82 0ZM106.3 0.18L87.39 0.18 87.39-4.03 105.35-4.03Q106.89-4.03 106.89-5.75L106.89-5.75Q106.89-7.44 105.35-7.44L105.35-7.44 93.73-7.44Q90.46-7.44 88.78-8.93 87.09-10.41 87.09-13.2L87.09-13.2Q87.09-16.02 88.8-17.54 90.5-19.06 93.73-19.06L93.73-19.06 110.44-19.06 110.44-14.85 93.98-14.85Q92.41-14.85 92.41-13.31L92.41-13.31Q92.41-12.54 92.85-12.1 93.29-11.66 93.98-11.66L93.98-11.66 106.3-11.66Q109.16-11.66 110.68-10.17 112.2-8.69 112.2-5.86L112.2-5.86Q112.2-3.01 110.66-1.41 109.12 0.18 106.3 0.18L106.3 0.18ZM131.77 0.18L124.99 0.18Q120.08 0.18 117.33-2.25 114.58-4.69 114.58-9.42L114.58-9.42Q114.58-14.19 117.33-16.62 120.08-19.06 124.99-19.06L124.99-19.06 131.77-19.06Q136.69-19.06 139.44-16.62 142.19-14.19 142.19-9.42L142.19-9.42Q142.19-4.69 139.44-2.25 136.69 0.18 131.77 0.18L131.77 0.18ZM124.99-4.03L124.99-4.03 131.77-4.03Q134.16-4.03 135.42-5.35 136.69-6.67 136.69-9.42L136.69-9.42Q136.69-12.21 135.42-13.53 134.16-14.85 131.77-14.85L131.77-14.85 124.99-14.85Q122.61-14.85 121.35-13.53 120.08-12.21 120.08-9.42L120.08-9.42Q120.08-6.67 121.35-5.35 122.61-4.03 124.99-4.03ZM150.87 0L145.48 0 145.48-18.88 159.93-18.88Q163.12-18.88 164.62-17.28 166.12-15.69 166.12-13.09L166.12-13.09 166.12-9.16 160.73-9.16 160.73-12.43Q160.73-14.63 158.53-14.63L158.53-14.63 150.87-14.63 150.87 0ZM186.61 0L180.23 0 192.04-26.21 201.09-26.21 212.89 0 206.51 0 204.02-5.53 189.1-5.53 186.61 0ZM196.32-21.63L191.23-10.3 201.9-10.3 196.8-21.63 196.32-21.63ZM221.69 0L215.83 0 215.83-26.21 221.69-26.21 221.69 0Z" transform="translate(-1.100000023841858, 26.39046859741211)"></path></g> <!----> <!----> <!----> <!----> <!----> <!----> <!----></g></g> <!----></g></g><defs v-gra="od"><linearGradient x1="0" y1="1" x2="0" y2="0" id="ed73322c-47bc-48cd-8fb1-2d070883ce37"><stop offset="0%" stop-color="#6a12cb"></stop><stop offset="100%" stop-color="#2575fc"></stop></linearGradient><filter id="42443b3f1de60f6b6fd3b6a9844b4764" filterUnits="objectBoundingBox"><feColorMatrix type="matrix" values="0 0 0 0 0.99609375  0 0 0 0 0.99609375  0 0 0 0 0.99609375  0 0 0 1 0"></feColorMatrix></filter></defs><defs v-gra="id"><filter id="b47e8000-9000-4ce8-bbdc-2e0925e68ab8" filterUnits="userSpaceOnUse"><feColorMatrix type="matrix" values="0 0 0 0 0.99609375  0 0 0 0 0.99609375  0 0 0 0 0.99609375  0 0 0 1 0"></feColorMatrix></filter><linearGradient x1="0" y1="1" x2="0" y2="0" id="rlxT9yJup42IubfLV0YXv"><stop offset="0%" stop-color="#6a12cb"></stop><stop offset="100%" stop-color="#2575fc"></stop></linearGradient><filter id="42443b3f1de60f6b6fd3b6a9844b4764" filterUnits="objectBoundingBox"><feColorMatrix type="matrix" values="0 0 0 0 0.99609375  0 0 0 0 0.99609375  0 0 0 0 0.99609375  0 0 0 1 0"></feColorMatrix></filter></defs><mask v-gra="im" id="9d303ad2-bf67-43cc-bfa2-b8048b4f3bc6"><g class="iconsvg-imagesvg" filter="url(#b47e8000-9000-4ce8-bbdc-2e0925e68ab8)"><g><rect fill="#1A1A1A" fill-opacity="0" stroke-width="2" x="0" y="0" width="60" height="60.1226502064211" class="image-rect"></rect> <svg x="0" y="0" width="60" height="60.1226502064211" filtersec="colorsf6051892666" class="image-svg-svg primary" style="overflow: visible;"><svg xmlns="http://www.w3.org/2000/svg" viewBox="0 -0.002691119909286499 94.22999572753906 94.42269134521484"><title>资源 166</title><path d="M55.14 75.75a46.1 46.1 0 0 1 10.32-13.64 43.41 43.41 0 0 1 26.73-11c1.55-.11 2.12.37 2 1.93s0 3.27 0 4.82c-22 2.4-34 14.54-36.54 36.56h-5.56c-1.44 0-1.18-1.06-1.21-1.9A49.7 49.7 0 0 0 46.61 74a50.3 50.3 0 0 0-18.13-21.73 3.21 3.21 0 0 0-2.55-.15c-2.3.86-4.52 2-7.16 3.12 15.47 8.55 23.85 21.28 24.57 39h-7.06c-.35-9.87-3.75-18.46-10.73-25.42A36.07 36.07 0 0 0 .22 58.14v-6.78c3.24-.43 6.52-.68 9.72-1.33a50.27 50.27 0 0 0 32.17-21.27 2.49 2.49 0 0 0 .17-3c-1.13-2.18-2.09-4.45-2.89-6.2-3.32 4.08-6.39 8.6-10.23 12.34C21.7 39.16 12.5 42.82 2.07 43.41.37 43.5 0 42.9 0 41.32c0-4.77 0-4.77 4.75-5.32 15.32-1.64 28.89-14.94 31-30.42.24-1.76.42-3.52.65-5.5a50.45 50.45 0 0 1 5.8.13c.46.05 1.08 1.23 1.11 1.92a49.94 49.94 0 0 0 3.74 17.23 50.72 50.72 0 0 0 18.59 22.85 3.21 3.21 0 0 0 2.56.26c2.36-.88 4.64-2 7.25-3.2-.65-.41-1.18-.77-1.72-1.08C59.65 30.11 52 18 51 1.8 50.86.52 51.27.13 52.53.07c5.13-.22 5.13-.25 5.79 4.65a36.16 36.16 0 0 0 32.91 31.45c2.94.27 2.94.27 3 3.19 0 3.91 0 3.91-3.94 4.28-16 1.5-28.63 8.85-38 21.91a2.68 2.68 0 0 0-.29 3.31c1.18 2.14 2 4.36 3.14 6.89zm-7.36-16.53L59 48 47.2 36.11 35.91 47.26c3.55 3.59 7.79 7.85 11.87 11.96z" fill="#000000"></path></svg></svg> <defs><filter id="colors8008779204"><feColorMatrix type="matrix" values="0 0 0 0 0.1015625  0 0 0 0 0.1015625  0 0 0 0 0.1015625  0 0 0 1 0" class="icon-fecolormatrix"></feColorMatrix></filter> <filter id="colorsf6051892666"><feColorMatrix type="matrix" values="0 0 0 0 0.99609375  0 0 0 0 0.99609375  0 0 0 0 0.99609375  0 0 0 1 0" class="icon-fecolormatrix"></feColorMatrix></filter> <filter id="colorsb7485024515"><feColorMatrix type="matrix" values="0 0 0 0 0  0 0 0 0 0  0 0 0 0 0  0 0 0 1 0" class="icon-fecolormatrix"></feColorMatrix></filter></defs></g></g></mask></svg>