<svg data-v-0dd9719b="" version="1.0" xmlns="http://www.w3.org/2000/svg" xmlns:xlink="http://www.w3.org/1999/xlink" width="100%" height="100%" viewBox="0 0 340.000000 250.000000" preserveAspectRatio="xMidYMid meet" color-interpolation-filters="sRGB" style="margin: auto;"> <rect data-v-0dd9719b="" x="0" y="0" width="100%" height="100%" fill="#000000" fill-opacity="0" class="background"></rect> <!----> <g data-v-0dd9719b="" fill="#1A1A1A" class="icon-text-wrapper icon-svg-group iconsvg" transform="translate(48.19999694824219,2.9510193318128586)"><g class="iconsvg-imagesvg" transform="translate(0,0)" mask="url(#4bdb384d-7999-4c96-9658-199b3db1c04c)"><g><rect fill="#1A1A1A" fill-opacity="0" stroke-width="2" x="0" y="0" width="243.60000000000002" height="244.0979598380697" class="image-rect"></rect> <svg filter="url(#colors7201441347)" x="0" y="0" width="243.60000000000002" height="244.0979598380697" filtersec="colorsf9121405108" class="image-svg-svg primary" style="overflow: visible;"><svg xmlns="http://www.w3.org/2000/svg" viewBox="0 -0.002691119909286499 94.22999572753906 94.42269134521484"><title>资源 166</title><path d="M55.14 75.75a46.1 46.1 0 0 1 10.32-13.64 43.41 43.41 0 0 1 26.73-11c1.55-.11 2.12.37 2 1.93s0 3.27 0 4.82c-22 2.4-34 14.54-36.54 36.56h-5.56c-1.44 0-1.18-1.06-1.21-1.9A49.7 49.7 0 0 0 46.61 74a50.3 50.3 0 0 0-18.13-21.73 3.21 3.21 0 0 0-2.55-.15c-2.3.86-4.52 2-7.16 3.12 15.47 8.55 23.85 21.28 24.57 39h-7.06c-.35-9.87-3.75-18.46-10.73-25.42A36.07 36.07 0 0 0 .22 58.14v-6.78c3.24-.43 6.52-.68 9.72-1.33a50.27 50.27 0 0 0 32.17-21.27 2.49 2.49 0 0 0 .17-3c-1.13-2.18-2.09-4.45-2.89-6.2-3.32 4.08-6.39 8.6-10.23 12.34C21.7 39.16 12.5 42.82 2.07 43.41.37 43.5 0 42.9 0 41.32c0-4.77 0-4.77 4.75-5.32 15.32-1.64 28.89-14.94 31-30.42.24-1.76.42-3.52.65-5.5a50.45 50.45 0 0 1 5.8.13c.46.05 1.08 1.23 1.11 1.92a49.94 49.94 0 0 0 3.74 17.23 50.72 50.72 0 0 0 18.59 22.85 3.21 3.21 0 0 0 2.56.26c2.36-.88 4.64-2 7.25-3.2-.65-.41-1.18-.77-1.72-1.08C59.65 30.11 52 18 51 1.8 50.86.52 51.27.13 52.53.07c5.13-.22 5.13-.25 5.79 4.65a36.16 36.16 0 0 0 32.91 31.45c2.94.27 2.94.27 3 3.19 0 3.91 0 3.91-3.94 4.28-16 1.5-28.63 8.85-38 21.91a2.68 2.68 0 0 0-.29 3.31c1.18 2.14 2 4.36 3.14 6.89zm-7.36-16.53L59 48 47.2 36.11 35.91 47.26c3.55 3.59 7.79 7.85 11.87 11.96z" fill="#000000"></path></svg></svg> <defs><filter id="colors7201441347"><feColorMatrix type="matrix" values="0 0 0 0 0.1015625  0 0 0 0 0.1015625  0 0 0 0 0.1015625  0 0 0 1 0" class="icon-fecolormatrix"></feColorMatrix></filter> <filter id="colorsf9121405108"><feColorMatrix type="matrix" values="0 0 0 0 0.99609375  0 0 0 0 0.99609375  0 0 0 0 0.99609375  0 0 0 1 0" class="icon-fecolormatrix"></feColorMatrix></filter> <filter id="colorsb9006947661"><feColorMatrix type="matrix" values="0 0 0 0 0  0 0 0 0 0  0 0 0 0 0  0 0 0 1 0" class="icon-fecolormatrix"></feColorMatrix></filter></defs></g><rect v-gra="id" width="255.60000610351562" height="256.09796142578125" transform="translate(-6, -6)" style="pointer-events:none;" fill="url(#lm-XwO-jyOkHiqOSmD27z)"></rect></g> <g transform="translate(250.60000610351562,122.04898071289062)"><g data-gra="path-name" fill-rule="" class="tp-name iconsvg-namesvg" fill="url(#54ca9192-dd2a-4026-87ca-8459dc666210)"><g transform="scale(1)"><g><path d="" transform="translate(0, 0)"></path></g> <!----> <!----> <!----> <!----> <!----> <!----> <!----></g></g> <!----></g></g><defs v-gra="od"><linearGradient x1="0" y1="1" x2="0" y2="0" id="54ca9192-dd2a-4026-87ca-8459dc666210"><stop offset="0%" stop-color="#6a12cb"></stop><stop offset="100%" stop-color="#2575fc"></stop></linearGradient><filter id="42443b3f1de60f6b6fd3b6a9844b4764" filterUnits="objectBoundingBox"><feColorMatrix type="matrix" values="0 0 0 0 0.99609375  0 0 0 0 0.99609375  0 0 0 0 0.99609375  0 0 0 1 0"></feColorMatrix></filter></defs><defs v-gra="id"><filter id="5ce25379-6e48-4583-928e-9a26930a920c" filterUnits="userSpaceOnUse"><feColorMatrix type="matrix" values="0 0 0 0 0.99609375  0 0 0 0 0.99609375  0 0 0 0 0.99609375  0 0 0 1 0"></feColorMatrix></filter><linearGradient x1="0" y1="1" x2="0" y2="0" id="lm-XwO-jyOkHiqOSmD27z"><stop offset="0%" stop-color="#6a12cb"></stop><stop offset="100%" stop-color="#2575fc"></stop></linearGradient><filter id="42443b3f1de60f6b6fd3b6a9844b4764" filterUnits="objectBoundingBox"><feColorMatrix type="matrix" values="0 0 0 0 0.99609375  0 0 0 0 0.99609375  0 0 0 0 0.99609375  0 0 0 1 0"></feColorMatrix></filter></defs><mask v-gra="im" id="4bdb384d-7999-4c96-9658-199b3db1c04c"><g class="iconsvg-imagesvg" filter="url(#5ce25379-6e48-4583-928e-9a26930a920c)"><g><rect fill="#1A1A1A" fill-opacity="0" stroke-width="2" x="0" y="0" width="243.60000000000002" height="244.0979598380697" class="image-rect"></rect> <svg x="0" y="0" width="243.60000000000002" height="244.0979598380697" filtersec="colorsf9121405108" class="image-svg-svg primary" style="overflow: visible;"><svg xmlns="http://www.w3.org/2000/svg" viewBox="0 -0.002691119909286499 94.22999572753906 94.42269134521484"><title>资源 166</title><path d="M55.14 75.75a46.1 46.1 0 0 1 10.32-13.64 43.41 43.41 0 0 1 26.73-11c1.55-.11 2.12.37 2 1.93s0 3.27 0 4.82c-22 2.4-34 14.54-36.54 36.56h-5.56c-1.44 0-1.18-1.06-1.21-1.9A49.7 49.7 0 0 0 46.61 74a50.3 50.3 0 0 0-18.13-21.73 3.21 3.21 0 0 0-2.55-.15c-2.3.86-4.52 2-7.16 3.12 15.47 8.55 23.85 21.28 24.57 39h-7.06c-.35-9.87-3.75-18.46-10.73-25.42A36.07 36.07 0 0 0 .22 58.14v-6.78c3.24-.43 6.52-.68 9.72-1.33a50.27 50.27 0 0 0 32.17-21.27 2.49 2.49 0 0 0 .17-3c-1.13-2.18-2.09-4.45-2.89-6.2-3.32 4.08-6.39 8.6-10.23 12.34C21.7 39.16 12.5 42.82 2.07 43.41.37 43.5 0 42.9 0 41.32c0-4.77 0-4.77 4.75-5.32 15.32-1.64 28.89-14.94 31-30.42.24-1.76.42-3.52.65-5.5a50.45 50.45 0 0 1 5.8.13c.46.05 1.08 1.23 1.11 1.92a49.94 49.94 0 0 0 3.74 17.23 50.72 50.72 0 0 0 18.59 22.85 3.21 3.21 0 0 0 2.56.26c2.36-.88 4.64-2 7.25-3.2-.65-.41-1.18-.77-1.72-1.08C59.65 30.11 52 18 51 1.8 50.86.52 51.27.13 52.53.07c5.13-.22 5.13-.25 5.79 4.65a36.16 36.16 0 0 0 32.91 31.45c2.94.27 2.94.27 3 3.19 0 3.91 0 3.91-3.94 4.28-16 1.5-28.63 8.85-38 21.91a2.68 2.68 0 0 0-.29 3.31c1.18 2.14 2 4.36 3.14 6.89zm-7.36-16.53L59 48 47.2 36.11 35.91 47.26c3.55 3.59 7.79 7.85 11.87 11.96z" fill="#000000"></path></svg></svg> <defs><filter id="colors7201441347"><feColorMatrix type="matrix" values="0 0 0 0 0.1015625  0 0 0 0 0.1015625  0 0 0 0 0.1015625  0 0 0 1 0" class="icon-fecolormatrix"></feColorMatrix></filter> <filter id="colorsf9121405108"><feColorMatrix type="matrix" values="0 0 0 0 0.99609375  0 0 0 0 0.99609375  0 0 0 0 0.99609375  0 0 0 1 0" class="icon-fecolormatrix"></feColorMatrix></filter> <filter id="colorsb9006947661"><feColorMatrix type="matrix" values="0 0 0 0 0  0 0 0 0 0  0 0 0 0 0  0 0 0 1 0" class="icon-fecolormatrix"></feColorMatrix></filter></defs></g></g></mask></svg>